<svg width="1000" height="612" viewBox="0 0 1000 612" fill="none" xmlns="http://www.w3.org/2000/svg">
    <g clip-path="url(#clip0)">
        <path d="M0 0V611.111H1000V0H0ZM36.2363 574.608V36.5036H963.678V574.608H36.2363Z" fill="#4DBDC6"/>
        <path d="M126.942 344.151H162.391L187.93 448.316L216.412 344.151H243.799L272.332 448.316L297.836 344.151H333.285L292.564 492.942H254.189L230.122 405.209L206.158 492.993H167.748L126.942 344.151Z"
              fill="#4DBDC6"/>
        <path d="M336.06 418.559C336.06 403.257 340.565 388.298 349.003 375.575C357.442 362.851 369.438 352.935 383.472 347.079C397.506 341.222 412.948 339.691 427.847 342.676C442.746 345.661 456.43 353.03 467.171 363.85C477.912 374.671 485.227 388.457 488.191 403.465C491.155 418.473 489.633 434.03 483.82 448.167C478.007 462.305 468.163 474.388 455.532 482.889C442.902 491.391 428.053 495.929 412.863 495.929C402.752 496.018 392.726 494.078 383.367 490.222C374.008 486.366 365.507 480.67 358.357 473.468C351.207 466.266 345.553 457.7 341.725 448.272C337.897 438.846 335.971 428.745 336.06 418.559ZM455.878 418.559C455.878 391.988 436.878 374.348 412.829 374.348C388.78 374.348 369.78 391.988 369.78 418.559C369.78 445.13 388.78 462.77 412.829 462.77C436.878 462.77 455.912 445.13 455.912 418.559H455.878Z"
              fill="#4DBDC6"/>
        <path d="M559.081 444.058H543.042V492.942H509.288V344.151H568.359C575.015 344.135 581.608 345.444 587.76 348.003C593.911 350.561 599.501 354.319 604.208 359.06C608.915 363.801 612.645 369.432 615.185 375.63C617.723 381.827 619.023 388.469 619.007 395.173C619.007 413.451 608.036 430.022 591.791 438.281L623.218 492.908H586.93L559.081 444.058ZM543.042 414.297H568.359C577.653 414.297 585.236 406.002 585.236 395.173C585.236 384.345 577.653 376.034 568.359 376.034H543.042V414.297Z"
              fill="#4DBDC6"/>
        <path d="M726.201 460.214V492.976H639.692V344.151H673.447V460.214H726.201Z" fill="#4DBDC6"/>
        <path d="M872.425 418.555C872.425 460.645 841.41 492.942 800.689 492.942H741.601V344.151H800.689C841.41 344.151 872.425 376.465 872.425 418.555ZM839.903 418.555C839.903 393.035 823.865 376.895 800.654 376.895H775.39V460.214H800.705C823.899 460.214 839.938 444.057 839.938 418.555H839.903Z"
              fill="#4DBDC6"/>
        <path d="M223.356 193.64C215.465 190.191 207.095 187.949 199.05 184.898C191.484 182.018 183.884 179.121 176.626 175.586C174.317 174.561 172.427 172.77 171.272 170.51C170.116 168.251 169.764 165.66 170.276 163.171C171.132 157.67 174.899 154.911 179.811 153.377C185.612 151.558 191.835 151.639 197.587 153.609C203.34 155.58 208.322 159.339 211.819 164.344C213.309 166.499 214.592 168.81 216.081 171.241L231.657 162.05C236.895 158.981 242.11 155.906 247.302 152.826C243.394 143.981 237.491 136.179 230.062 130.04C222.633 123.9 213.883 119.593 204.51 117.46C199.644 116.05 194.613 115.296 189.55 115.218C181.694 115.264 173.899 116.609 166.476 119.201C145.936 126.099 133.492 142.807 132.585 163.637C131.679 184.467 141.554 199.571 161.855 209.02C162.88 209.531 163.931 209.986 165.004 210.383C175.121 213.694 185.322 216.746 195.335 220.333C200.399 221.969 205.217 224.289 209.662 227.229C217.416 232.713 216.133 243.386 207.505 247.386C204.593 248.633 201.523 249.463 198.382 249.853C180.803 252.49 167.161 245.369 159.014 229.557C158.689 228.901 158.261 228.281 157.781 227.488C147.767 233.299 137.823 239.161 127.793 244.851C125.687 246.059 126.303 247.335 127.005 248.956C132.687 262.111 141.623 272.371 154.392 278.579C164.789 283.785 176.167 286.698 187.77 287.126C199.372 287.555 210.932 285.487 221.679 281.063C240.815 273.544 251.222 258.887 252.044 237.868C252.882 216.349 242.51 201.934 223.356 193.64Z"
              fill="black"/>
        <path d="M753.687 118.875C753.108 118.918 752.534 119.016 751.974 119.168V155.275H793.894V283.27H831.329V154.999H873.641V118.978C833.656 118.978 793.671 118.944 753.687 118.875Z"
              fill="black"/>
        <path d="M399.885 118.768C398.83 118.668 397.771 118.899 396.851 119.43C395.932 119.961 395.197 120.766 394.751 121.734C381.491 143.908 368.094 166.048 354.56 188.154C353.858 189.291 353.087 190.395 352.215 191.74C351.273 190.24 350.503 189.085 349.784 187.878C336.433 165.864 323.06 143.856 309.662 121.854C308.91 120.612 307.403 118.991 306.238 118.975C294.463 118.768 282.67 118.854 270.671 118.854V283.404H307.763V189.481C309.003 190.212 310.012 191.282 310.672 192.568L348.106 254.418C351.016 259.229 353.413 259.247 356.288 254.418L393.945 192.24C394.596 191.171 395.35 190.171 396.051 189.137L396.838 189.55V283.3H433.947V118.837C422.411 118.837 411.148 118.975 399.885 118.768Z"
              fill="black"/>
        <path d="M717.984 220.851C737.874 208.556 747.768 185.847 742.941 163.637C740.402 150.976 733.589 139.592 723.659 131.419C713.73 123.246 701.298 118.79 688.475 118.806C667.404 118.582 646.333 118.806 625.262 118.806C624.396 118.843 623.534 118.929 622.677 119.064V283.391H659.873V229.42C664.922 229.42 669.475 229.593 674.011 229.42C675.171 229.295 676.339 229.557 677.337 230.164C678.335 230.771 679.109 231.691 679.54 232.783C688.492 248.801 697.632 264.734 706.808 280.632C707.526 281.891 709.032 283.529 710.231 283.546C722.778 283.771 735.324 283.684 748.794 283.684L714.064 223.333L717.984 220.851ZM705.643 182.071C704.592 186.323 702.111 190.079 698.622 192.696C695.133 195.315 690.852 196.635 686.506 196.434C677.776 196.434 669.064 196.434 660.112 196.434V154.344C670.382 154.344 680.652 153.636 690.632 154.533C702.22 155.569 709.374 169.517 705.643 182.071Z"
              fill="black"/>
        <path d="M553.153 121.614C552.974 120.702 552.447 119.897 551.685 119.371C550.924 118.846 549.987 118.642 549.078 118.804C535.505 118.804 521.914 118.96 508.341 118.804C505.26 118.804 504.011 119.718 503.034 122.632C489.273 163.74 475.425 204.824 461.492 245.886C457.35 258.198 453.173 270.491 448.979 282.941C449.698 283.338 449.904 283.544 450.126 283.544C462.691 283.544 475.254 283.682 487.783 283.544C488.691 283.544 490.043 282.113 490.402 281.079C492.696 274.32 494.87 267.526 496.873 260.663C496.935 260.202 497.088 259.76 497.324 259.361C497.561 258.962 497.874 258.616 498.247 258.342C498.619 258.068 499.043 257.873 499.492 257.768C499.941 257.663 500.406 257.651 500.861 257.731C519.118 257.823 537.376 257.823 555.634 257.731C556.088 257.661 556.552 257.683 556.997 257.798C557.443 257.911 557.861 258.114 558.226 258.394C558.592 258.674 558.897 259.026 559.126 259.427C559.354 259.829 559.499 260.272 559.554 260.732C561.505 267.336 563.799 273.837 565.665 280.476C566.401 283.079 567.633 283.769 570.201 283.734C581.498 283.597 592.795 283.734 604.092 283.734C605.154 283.734 606.232 283.544 607.515 283.441C607.258 282.423 607.156 281.803 606.951 281.217C589.024 227.981 571.091 174.781 553.153 121.614ZM509.3 222.314C515.564 202.433 521.761 182.811 528.316 161.963C534.821 182.534 540.999 202.088 547.384 222.314H509.3Z"
              fill="black"/>
    </g>
    <defs>
        <clipPath id="clip0">
            <rect width="1000" height="611.111" fill="white"/>
        </clipPath>
    </defs>
</svg>
